<?xml version="1.0" standalone="no"?>
<!DOCTYPE svg PUBLIC "-//W3C//DTD SVG 20010904//EN"
 "http://www.w3.org/TR/2001/REC-SVG-20010904/DTD/svg10.dtd">
<svg version="1.0" xmlns="http://www.w3.org/2000/svg"
 width="1024.000000pt" height="1024.000000pt" viewBox="0 0 1024.000000 1024.000000"
 preserveAspectRatio="xMidYMid meet">

<g transform="translate(0.000000,1024.000000) scale(0.100000,-0.100000)"
fill="#000000" stroke="none">
<path d="M4230 10229 c-25 -5 -92 -19 -150 -30 -272 -53 -675 -175 -904 -274
-184 -79 -544 -259 -670 -335 -423 -255 -645 -429 -953 -741 -272 -277 -421
-459 -676 -830 -161 -234 -397 -683 -514 -979 -171 -434 -293 -905 -339 -1315
-25 -220 -31 -874 -10 -1085 29 -291 101 -686 172 -945 44 -160 169 -519 222
-641 214 -487 501 -939 816 -1289 256 -284 524 -547 691 -677 210 -164 512
-359 763 -492 408 -217 669 -319 1167 -455 522 -143 502 -141 1255 -141 l615
0 175 30 c593 103 1099 277 1675 577 222 115 660 416 815 559 41 38 119 105
173 149 101 81 351 342 542 565 128 151 431 597 539 797 131 240 285 608 361
857 28 94 110 420 126 498 48 249 74 445 89 673 6 94 16 200 22 236 6 37 8
117 5 185 -31 640 -37 725 -72 941 -42 259 -113 526 -222 832 -117 329 -374
835 -530 1042 -31 41 -110 151 -176 244 -379 538 -950 1071 -1507 1406 -512
307 -1178 555 -1707 634 -86 13 -234 15 -925 14 -459 -1 -843 -5 -868 -10z
m1315 -340 c328 -32 753 -129 1071 -245 519 -188 1066 -506 1469 -853 200
-173 474 -457 631 -656 77 -97 325 -465 391 -580 165 -287 320 -623 399 -863
63 -191 158 -547 188 -710 54 -287 82 -673 72 -992 -7 -227 -16 -320 -52 -553
-87 -567 -269 -1139 -474 -1486 -17 -29 -54 -97 -82 -150 -186 -351 -335 -560
-607 -850 -249 -266 -455 -452 -701 -632 -41 -31 -126 -93 -188 -138 -62 -46
-172 -115 -245 -153 -412 -218 -434 -229 -677 -325 -141 -55 -432 -153 -560
-187 -123 -33 -326 -69 -570 -102 -344 -47 -785 -44 -1135 7 -514 74 -992 227
-1479 471 -237 118 -491 276 -662 411 -23 17 -75 57 -115 89 -274 209 -593
526 -831 823 -65 82 -285 415 -361 548 -226 393 -394 850 -516 1402 -87 388
-96 489 -96 1015 1 382 2 426 23 560 119 751 309 1291 661 1873 114 190 317
479 431 616 118 141 379 408 515 526 91 78 379 297 490 372 240 161 577 334
888 457 466 185 884 282 1347 316 152 11 623 4 775 -11z"/>
<path d="M4805 9674 c-366 -23 -702 -93 -1125 -234 -210 -70 -297 -107 -583
-252 -411 -208 -743 -447 -1086 -783 -254 -249 -428 -459 -613 -740 -227 -343
-363 -616 -500 -997 -133 -373 -190 -614 -240 -1018 -21 -170 -18 -856 5
-1045 68 -563 207 -1035 440 -1502 259 -516 593 -949 1040 -1346 460 -409 898
-666 1503 -883 354 -127 677 -201 1046 -240 198 -21 733 -15 938 11 451 55
979 224 1450 463 482 245 805 478 1178 852 323 323 462 507 708 930 190 328
365 762 454 1124 54 222 67 290 95 499 88 662 48 1264 -126 1885 -33 118 -166
482 -214 587 -141 310 -427 773 -636 1030 -166 205 -522 555 -739 728 -75 60
-340 240 -465 317 -163 100 -530 279 -693 339 -116 42 -424 137 -537 165 -106
26 -334 66 -525 92 -111 14 -633 27 -775 18z m745 -388 c352 -42 529 -86 925
-233 221 -81 605 -280 830 -427 588 -387 1123 -995 1435 -1631 81 -163 185
-412 240 -572 130 -376 194 -789 192 -1248 -1 -534 -59 -894 -225 -1395 -134
-401 -328 -770 -597 -1135 -172 -233 -294 -367 -510 -559 -389 -348 -743 -578
-1182 -767 -307 -132 -577 -209 -953 -274 -185 -32 -374 -45 -661 -45 -367 0
-560 26 -989 135 -260 67 -493 154 -738 277 -93 46 -398 228 -507 301 -338
229 -671 548 -929 892 -184 245 -192 257 -300 437 -302 504 -475 1037 -553
1703 -21 177 -17 738 5 900 83 589 236 1055 500 1515 91 159 315 492 412 613
184 227 572 588 835 777 146 105 360 236 463 284 50 24 173 82 272 129 215
101 327 144 534 203 231 67 463 109 746 138 96 10 627 -3 755 -18z"/>
<path d="M4735 9035 c-93 -7 -215 -21 -270 -30 -363 -61 -830 -236 -1201 -451
-368 -212 -655 -452 -1023 -853 -217 -236 -219 -239 -379 -506 -179 -300 -311
-574 -394 -815 -76 -223 -145 -555 -170 -815 -19 -204 -16 -688 5 -880 65
-579 285 -1177 624 -1695 138 -210 305 -412 518 -625 299 -300 600 -513 1030
-728 234 -117 370 -170 623 -241 349 -99 530 -126 889 -133 483 -10 780 29
1165 153 154 50 363 133 543 216 245 113 330 163 516 304 53 40 123 89 155
110 308 194 784 724 1016 1129 225 394 374 789 452 1200 53 284 62 354 77 631
25 445 -24 834 -161 1289 -66 217 -119 350 -216 540 -134 265 -270 482 -428
690 -154 202 -479 531 -697 706 -428 344 -1082 654 -1584 753 -295 58 -740 79
-1090 51z m278 -989 c249 -64 481 -225 618 -431 119 -177 197 -375 246 -623
15 -75 29 -139 31 -142 2 -3 138 -3 303 -1 l299 3 31 -32 32 -31 -7 -297 c-7
-273 -9 -299 -27 -318 -18 -20 -19 -56 -21 -1416 l-3 -1396 30 -6 c17 -3 207
-4 423 -1 l392 4 0 -33 c0 -30 5 -36 57 -62 66 -34 145 -128 164 -197 33 -114
2 -232 -87 -327 -98 -105 -229 -134 -346 -77 -66 33 -147 116 -173 179 l-18
43 -247 -2 -247 -2 -79 -79 c-56 -55 -99 -88 -148 -111 -136 -66 -33 -62
-1576 -61 -1327 0 -1406 1 -1429 18 -13 10 -32 33 -42 51 -17 31 -18 64 -15
430 2 218 5 984 7 1703 l3 1308 -21 22 c-46 51 -46 56 -39 352 4 154 12 288
17 298 18 33 83 40 327 36 l232 -3 0 70 c0 102 25 267 55 369 47 163 115 288
232 428 245 295 656 429 1026 334z"/>
<path d="M4592 7755 c-30 -7 -92 -32 -140 -55 -105 -52 -227 -168 -290 -275
-80 -136 -132 -355 -117 -488 12 -107 -76 -96 756 -92 402 2 733 6 736 9 9 9
-37 255 -63 339 -91 287 -303 498 -565 561 -78 19 -241 20 -317 1z"/>
<path d="M3578 6143 l-38 -4 0 -700 0 -699 620 0 620 0 0 583 c0 320 5 633 10
696 6 63 8 117 4 120 -6 7 -1157 10 -1216 4z"/>
<path d="M3539 3898 c0 -326 -3 -680 -6 -785 l-5 -193 1224 0 c682 0 1261 4
1308 10 111 12 268 28 351 35 55 5 68 10 77 28 9 18 11 19 11 5 1 -17 17 -18
194 -17 105 1 205 4 221 8 24 5 32 16 51 70 13 35 33 76 44 91 l20 27 -1211
-5 -1211 -5 6 78 c4 43 7 104 7 137 l0 58 80 0 80 0 2 525 3 525 -622 0 -623
0 -1 -592z m2971 -812 c0 -13 -7 -29 -15 -36 -13 -11 -15 -8 -15 17 0 16 3 33
7 36 13 14 23 6 23 -17z"/>
</g>
</svg>
